<?xml version="1.0" standalone="no"?><svg xmlns="http://www.w3.org/2000/svg" viewBox="0 0 1440 320"><path fill="#0099ff" fill-opacity="1" d="M0,96L21.8,106.7C43.6,117,87,139,131,128C174.5,117,218,75,262,80C305.5,85,349,139,393,165.3C436.4,192,480,192,524,176C567.3,160,611,128,655,144C698.2,160,742,224,785,250.7C829.1,277,873,267,916,240C960,213,1004,171,1047,170.7C1090.9,171,1135,213,1178,197.3C1221.8,181,1265,107,1309,80C1352.7,53,1396,75,1418,85.3L1440,96L1440,320L1418.2,320C1396.4,320,1353,320,1309,320C1265.5,320,1222,320,1178,320C1134.5,320,1091,320,1047,320C1003.6,320,960,320,916,320C872.7,320,829,320,785,320C741.8,320,698,320,655,320C610.9,320,567,320,524,320C480,320,436,320,393,320C349.1,320,305,320,262,320C218.2,320,175,320,131,320C87.3,320,44,320,22,320L0,320Z"></path></svg>